<?xml version="1.0" encoding="UTF-8" standalone="no"?>
<!DOCTYPE svg PUBLIC "-//W3C//DTD SVG 1.1//EN" "http://www.w3.org/Graphics/SVG/1.1/DTD/svg11.dtd">
<svg width="100%" height="100%" viewBox="0 0 3889 3889" version="1.1" xmlns="http://www.w3.org/2000/svg" xmlns:xlink="http://www.w3.org/1999/xlink" xml:space="preserve" xmlns:serif="http://www.serif.com/" style="fill-rule:evenodd;clip-rule:evenodd;stroke-linecap:round;stroke-linejoin:round;stroke-miterlimit:1.5;">
<style>
:root{
	@media (prefers-color-scheme:light) {
		
		.content_logo{
			stroke:black;
		}
		.content_text{
			fill:black;
		}
	}
	@media (prefers-color-scheme:dark) {
		
		.content_logo{
			stroke:white;
		}
		.content_text{
			fill:white;
		}
	}
}
</style>
    <g transform="matrix(1.85185,0,0,1.85185,0,0)">
        <rect id="ArtBoard1" x="0" y="0" width="100%" height="100%" style="fill:none;"/>
        <g id="ArtBoard11" serif:id="ArtBoard1">
            <g transform="matrix(0.715291,0,0,0.715291,300.956,230.379)">
                <g transform="matrix(0.425331,0,0,0.423592,224.857,168.811)">
                    <path d="M3600,2904.61L2879,1427L2352,2897.04L2865,2897.04L1944.44,958L1032,2897.04L1551,2897.04L1024,1427L280,2904.61" style="fill:none;stroke-width:148.21px;" class="content_logo"/>
                </g>
                <g transform="matrix(1.09893,0,0,1.09893,-485.561,-1762.24)" class="content_text">
                    <g transform="matrix(159.883,0,0,159.883,284.444,3127)">
                        <path d="M0.037,-0.019L0.037,-0.255C0.077,-0.201 0.12,-0.173 0.167,-0.173C0.184,-0.173 0.198,-0.178 0.209,-0.187C0.221,-0.197 0.226,-0.208 0.226,-0.222C0.226,-0.242 0.214,-0.262 0.19,-0.281L0.157,-0.307C0.135,-0.324 0.116,-0.34 0.1,-0.357C0.084,-0.373 0.072,-0.39 0.062,-0.407C0.052,-0.425 0.045,-0.443 0.041,-0.461C0.036,-0.48 0.034,-0.5 0.034,-0.52C0.034,-0.555 0.042,-0.592 0.058,-0.63C0.066,-0.648 0.076,-0.665 0.086,-0.679C0.097,-0.694 0.11,-0.707 0.124,-0.719C0.162,-0.751 0.208,-0.768 0.263,-0.768C0.311,-0.768 0.36,-0.755 0.409,-0.729L0.409,-0.499C0.393,-0.524 0.374,-0.545 0.353,-0.559C0.331,-0.574 0.311,-0.582 0.29,-0.582C0.274,-0.582 0.262,-0.577 0.251,-0.568C0.241,-0.559 0.236,-0.549 0.236,-0.536C0.236,-0.516 0.25,-0.496 0.277,-0.476L0.31,-0.452C0.353,-0.421 0.383,-0.389 0.402,-0.357C0.421,-0.324 0.43,-0.286 0.43,-0.243C0.43,-0.168 0.408,-0.107 0.362,-0.059C0.317,-0.011 0.26,0.013 0.19,0.013C0.143,0.013 0.091,0.003 0.037,-0.019Z" style="fill-rule:nonzero;"/>
                    </g>
                    <g transform="matrix(159.883,0,0,159.883,358.921,3127)">
                        <path d="M0.268,-0L0.072,-0L0.072,-0.37L0.016,-0.37L0.016,-0.528L0.072,-0.528L0.072,-0.683L0.268,-0.683L0.268,-0.528L0.333,-0.528L0.333,-0.37L0.268,-0.37L0.268,-0Z" style="fill-rule:nonzero;"/>
                    </g>
                    <g transform="matrix(159.883,0,0,159.883,413.334,3127)">
                        <path d="M0.045,-0.528L0.241,-0.528L0.241,-0.23C0.241,-0.202 0.244,-0.181 0.25,-0.168C0.255,-0.158 0.266,-0.152 0.283,-0.152C0.299,-0.152 0.309,-0.158 0.315,-0.168C0.321,-0.179 0.324,-0.2 0.324,-0.23L0.324,-0.528L0.52,-0.528L0.52,-0.204C0.52,-0.183 0.518,-0.163 0.514,-0.146C0.511,-0.128 0.506,-0.113 0.498,-0.098C0.491,-0.084 0.482,-0.071 0.47,-0.06C0.458,-0.048 0.445,-0.037 0.429,-0.027C0.386,-0.002 0.337,0.011 0.283,0.011C0.228,0.011 0.179,-0.002 0.137,-0.027C0.12,-0.037 0.107,-0.048 0.095,-0.059C0.083,-0.071 0.074,-0.084 0.067,-0.098C0.059,-0.112 0.054,-0.128 0.051,-0.146C0.047,-0.163 0.045,-0.183 0.045,-0.204L0.045,-0.528Z" style="fill-rule:nonzero;"/>
                    </g>
                    <g transform="matrix(159.883,0,0,159.883,503.659,3127)">
                        <path d="M0.316,-0C0.317,-0.006 0.317,-0.012 0.317,-0.019C0.318,-0.026 0.318,-0.035 0.319,-0.044C0.319,-0.05 0.32,-0.059 0.32,-0.071C0.301,-0.04 0.283,-0.019 0.265,-0.007C0.248,0.005 0.226,0.011 0.2,0.011C0.147,0.011 0.105,-0.013 0.075,-0.061C0.045,-0.108 0.03,-0.174 0.03,-0.259C0.03,-0.348 0.045,-0.417 0.074,-0.465C0.104,-0.514 0.145,-0.539 0.198,-0.539C0.228,-0.539 0.251,-0.533 0.269,-0.52C0.288,-0.507 0.306,-0.484 0.324,-0.452C0.323,-0.469 0.322,-0.479 0.322,-0.482L0.32,-0.536L0.32,-0.825L0.517,-0.825L0.517,-0L0.316,-0ZM0.233,-0.266C0.233,-0.194 0.249,-0.158 0.281,-0.158C0.312,-0.158 0.327,-0.195 0.327,-0.27C0.327,-0.341 0.312,-0.376 0.283,-0.376C0.25,-0.376 0.233,-0.34 0.233,-0.266Z" style="fill-rule:nonzero;"/>
                    </g>
                    <g transform="matrix(159.883,0,0,159.883,593.436,3127)">
                        <path d="M0.315,-0.179L0.507,-0.175C0.493,-0.113 0.467,-0.067 0.427,-0.036C0.387,-0.005 0.336,0.011 0.272,0.011C0.196,0.011 0.137,-0.013 0.094,-0.06C0.052,-0.107 0.03,-0.172 0.03,-0.254C0.03,-0.338 0.053,-0.406 0.099,-0.459C0.145,-0.512 0.204,-0.539 0.277,-0.539C0.349,-0.539 0.407,-0.513 0.45,-0.462C0.493,-0.41 0.514,-0.342 0.514,-0.257L0.513,-0.223L0.226,-0.223C0.228,-0.169 0.244,-0.142 0.272,-0.142C0.294,-0.142 0.309,-0.154 0.315,-0.179ZM0.32,-0.328C0.32,-0.338 0.319,-0.347 0.316,-0.355C0.314,-0.363 0.311,-0.37 0.307,-0.376C0.303,-0.382 0.298,-0.386 0.292,-0.39C0.287,-0.393 0.281,-0.395 0.274,-0.395C0.261,-0.395 0.25,-0.389 0.241,-0.376C0.233,-0.364 0.229,-0.348 0.229,-0.328L0.32,-0.328Z" style="fill-rule:nonzero;"/>
                    </g>
                    <g transform="matrix(159.883,0,0,159.883,680.482,3127)">
                        <path d="M0.51,-0L0.314,-0L0.314,-0.279C0.314,-0.303 0.312,-0.32 0.307,-0.33C0.302,-0.339 0.294,-0.344 0.282,-0.344C0.255,-0.344 0.241,-0.318 0.241,-0.266L0.241,-0L0.045,-0L0.045,-0.528L0.241,-0.528C0.241,-0.515 0.241,-0.503 0.24,-0.492C0.24,-0.481 0.239,-0.47 0.239,-0.461L0.237,-0.427C0.268,-0.502 0.315,-0.539 0.375,-0.539C0.418,-0.539 0.451,-0.523 0.474,-0.492C0.498,-0.46 0.51,-0.416 0.51,-0.36L0.51,-0Z" style="fill-rule:nonzero;"/>
                    </g>
                    <g transform="matrix(159.883,0,0,159.883,769.167,3127)">
                        <path d="M0.268,-0L0.072,-0L0.072,-0.37L0.016,-0.37L0.016,-0.528L0.072,-0.528L0.072,-0.683L0.268,-0.683L0.268,-0.528L0.333,-0.528L0.333,-0.37L0.268,-0.37L0.268,-0Z" style="fill-rule:nonzero;"/>
                    </g>
                    <g transform="matrix(159.883,0,0,159.883,824.517,3127)">
                        <path d="M0.315,-0.179L0.507,-0.175C0.493,-0.113 0.467,-0.067 0.427,-0.036C0.387,-0.005 0.336,0.011 0.272,0.011C0.196,0.011 0.137,-0.013 0.094,-0.06C0.052,-0.107 0.03,-0.172 0.03,-0.254C0.03,-0.338 0.053,-0.406 0.099,-0.459C0.145,-0.512 0.204,-0.539 0.277,-0.539C0.349,-0.539 0.407,-0.513 0.45,-0.462C0.493,-0.41 0.514,-0.342 0.514,-0.257L0.513,-0.223L0.226,-0.223C0.228,-0.169 0.244,-0.142 0.272,-0.142C0.294,-0.142 0.309,-0.154 0.315,-0.179ZM0.32,-0.328C0.32,-0.338 0.319,-0.347 0.316,-0.355C0.314,-0.363 0.311,-0.37 0.307,-0.376C0.303,-0.382 0.298,-0.386 0.292,-0.39C0.287,-0.393 0.281,-0.395 0.274,-0.395C0.261,-0.395 0.25,-0.389 0.241,-0.376C0.233,-0.364 0.229,-0.348 0.229,-0.328L0.32,-0.328Z" style="fill-rule:nonzero;"/>
                    </g>
                    <g transform="matrix(159.883,0,0,159.883,911.562,3127)">
                        <path d="M0.51,-0L0.314,-0L0.314,-0.279C0.314,-0.303 0.312,-0.32 0.307,-0.33C0.302,-0.339 0.294,-0.344 0.282,-0.344C0.255,-0.344 0.241,-0.318 0.241,-0.266L0.241,-0L0.045,-0L0.045,-0.528L0.241,-0.528C0.241,-0.515 0.241,-0.503 0.24,-0.492C0.24,-0.481 0.239,-0.47 0.239,-0.461L0.237,-0.427C0.268,-0.502 0.315,-0.539 0.375,-0.539C0.418,-0.539 0.451,-0.523 0.474,-0.492C0.498,-0.46 0.51,-0.416 0.51,-0.36L0.51,-0Z" style="fill-rule:nonzero;"/>
                    </g>
                    <g transform="matrix(159.883,0,0,159.883,1048.34,3127)">
                        <path d="M0.517,-0L0.32,-0C0.322,-0.018 0.323,-0.034 0.324,-0.05C0.325,-0.066 0.326,-0.079 0.327,-0.089C0.293,-0.022 0.248,0.011 0.191,0.011C0.141,0.011 0.102,-0.014 0.073,-0.063C0.045,-0.113 0.03,-0.181 0.03,-0.268C0.03,-0.352 0.045,-0.418 0.075,-0.466C0.104,-0.515 0.145,-0.539 0.196,-0.539C0.248,-0.539 0.291,-0.507 0.323,-0.444C0.322,-0.451 0.321,-0.47 0.32,-0.474L0.317,-0.528L0.517,-0.528L0.517,-0ZM0.318,-0.271C0.318,-0.29 0.318,-0.307 0.316,-0.32C0.315,-0.334 0.312,-0.345 0.309,-0.354C0.306,-0.362 0.302,-0.369 0.296,-0.372C0.291,-0.376 0.285,-0.378 0.277,-0.378C0.244,-0.378 0.228,-0.334 0.228,-0.246C0.228,-0.182 0.242,-0.151 0.272,-0.151C0.303,-0.151 0.318,-0.191 0.318,-0.271Z" style="fill-rule:nonzero;"/>
                    </g>
                    <g transform="matrix(159.883,0,0,159.883,1138.11,3127)">
                        <path d="M0.784,-0L0.588,-0L0.588,-0.299C0.588,-0.332 0.578,-0.349 0.559,-0.349C0.529,-0.349 0.514,-0.322 0.514,-0.267L0.514,-0L0.318,-0L0.318,-0.292C0.318,-0.327 0.307,-0.345 0.285,-0.345C0.269,-0.345 0.258,-0.339 0.251,-0.327C0.245,-0.315 0.241,-0.293 0.241,-0.263L0.241,-0L0.045,-0L0.045,-0.528L0.241,-0.528L0.241,-0.5C0.241,-0.479 0.24,-0.459 0.238,-0.44C0.273,-0.506 0.319,-0.539 0.375,-0.539C0.437,-0.539 0.484,-0.503 0.514,-0.43C0.541,-0.503 0.584,-0.539 0.645,-0.539C0.691,-0.539 0.727,-0.522 0.752,-0.489C0.774,-0.461 0.784,-0.419 0.784,-0.362L0.784,-0Z" style="fill-rule:nonzero;"/>
                    </g>
                    <g transform="matrix(159.883,0,0,159.883,1318.84,3127)">
                        <path d="M0.699,-0L0.503,-0L0.456,-0.264C0.447,-0.315 0.44,-0.36 0.436,-0.397C0.433,-0.416 0.431,-0.431 0.43,-0.443C0.428,-0.456 0.427,-0.465 0.426,-0.472C0.425,-0.458 0.422,-0.433 0.419,-0.397C0.417,-0.378 0.415,-0.359 0.413,-0.338C0.411,-0.318 0.408,-0.296 0.405,-0.273L0.366,-0L0.168,-0L0,-0.754L0.201,-0.754L0.234,-0.546C0.247,-0.464 0.256,-0.399 0.261,-0.352L0.268,-0.283L0.274,-0.342C0.281,-0.411 0.29,-0.476 0.3,-0.539L0.338,-0.754L0.514,-0.754L0.548,-0.573C0.564,-0.488 0.578,-0.389 0.59,-0.273C0.594,-0.325 0.598,-0.371 0.602,-0.411C0.606,-0.451 0.611,-0.487 0.616,-0.52L0.653,-0.754L0.852,-0.754L0.699,-0Z" style="fill-rule:nonzero;"/>
                    </g>
                    <g transform="matrix(159.883,0,0,159.883,1455.07,3127)">
                        <path d="M0.315,-0.179L0.507,-0.175C0.493,-0.113 0.467,-0.067 0.427,-0.036C0.387,-0.005 0.336,0.011 0.272,0.011C0.196,0.011 0.137,-0.013 0.094,-0.06C0.052,-0.107 0.03,-0.172 0.03,-0.254C0.03,-0.338 0.053,-0.406 0.099,-0.459C0.145,-0.512 0.204,-0.539 0.277,-0.539C0.349,-0.539 0.407,-0.513 0.45,-0.462C0.493,-0.41 0.514,-0.342 0.514,-0.257L0.513,-0.223L0.226,-0.223C0.228,-0.169 0.244,-0.142 0.272,-0.142C0.294,-0.142 0.309,-0.154 0.315,-0.179ZM0.32,-0.328C0.32,-0.338 0.319,-0.347 0.316,-0.355C0.314,-0.363 0.311,-0.37 0.307,-0.376C0.303,-0.382 0.298,-0.386 0.292,-0.39C0.287,-0.393 0.281,-0.395 0.274,-0.395C0.261,-0.395 0.25,-0.389 0.241,-0.376C0.233,-0.364 0.229,-0.348 0.229,-0.328L0.32,-0.328Z" style="fill-rule:nonzero;"/>
                    </g>
                    <g transform="matrix(159.883,0,0,159.883,1542.12,3127)">
                        <path d="M0.241,-0L0.045,-0L0.045,-0.528L0.241,-0.528L0.241,-0ZM0.258,-0.691C0.258,-0.66 0.247,-0.634 0.224,-0.611C0.201,-0.589 0.174,-0.578 0.144,-0.578C0.112,-0.578 0.085,-0.589 0.063,-0.612C0.04,-0.635 0.029,-0.662 0.029,-0.693C0.029,-0.724 0.04,-0.751 0.063,-0.773C0.086,-0.796 0.112,-0.807 0.143,-0.807C0.175,-0.807 0.202,-0.795 0.225,-0.773C0.247,-0.751 0.258,-0.724 0.258,-0.691Z" style="fill-rule:nonzero;"/>
                    </g>
                    <g transform="matrix(159.883,0,0,159.883,1587.94,3127)">
                        <path d="M0.263,-0L0.066,-0L0.066,-0.37L0.012,-0.37L0.012,-0.528L0.066,-0.528C0.066,-0.557 0.067,-0.583 0.068,-0.603C0.069,-0.624 0.071,-0.64 0.073,-0.653C0.078,-0.681 0.088,-0.706 0.103,-0.728C0.124,-0.761 0.153,-0.788 0.188,-0.808C0.224,-0.828 0.263,-0.838 0.305,-0.838C0.368,-0.838 0.423,-0.817 0.468,-0.774C0.513,-0.731 0.536,-0.68 0.536,-0.62C0.536,-0.6 0.533,-0.581 0.529,-0.563C0.524,-0.545 0.517,-0.53 0.508,-0.516C0.5,-0.503 0.489,-0.492 0.476,-0.482C0.463,-0.473 0.449,-0.467 0.433,-0.463C0.466,-0.458 0.493,-0.444 0.512,-0.423C0.547,-0.383 0.565,-0.332 0.565,-0.268C0.565,-0.223 0.556,-0.181 0.539,-0.142C0.521,-0.103 0.498,-0.072 0.467,-0.049C0.425,-0.016 0.373,-0 0.313,-0L0.313,-0.161C0.346,-0.171 0.362,-0.206 0.362,-0.266C0.362,-0.331 0.346,-0.366 0.313,-0.37L0.313,-0.528C0.338,-0.53 0.35,-0.554 0.35,-0.598C0.35,-0.641 0.335,-0.663 0.306,-0.663C0.277,-0.663 0.263,-0.639 0.263,-0.591L0.263,-0Z" style="fill-rule:nonzero;"/>
                    </g>
                    <g transform="matrix(159.883,0,0,159.883,1683.03,3127)">
                        <path d="M0.315,-0.179L0.507,-0.175C0.493,-0.113 0.467,-0.067 0.427,-0.036C0.387,-0.005 0.336,0.011 0.272,0.011C0.196,0.011 0.137,-0.013 0.094,-0.06C0.052,-0.107 0.03,-0.172 0.03,-0.254C0.03,-0.338 0.053,-0.406 0.099,-0.459C0.145,-0.512 0.204,-0.539 0.277,-0.539C0.349,-0.539 0.407,-0.513 0.45,-0.462C0.493,-0.41 0.514,-0.342 0.514,-0.257L0.513,-0.223L0.226,-0.223C0.228,-0.169 0.244,-0.142 0.272,-0.142C0.294,-0.142 0.309,-0.154 0.315,-0.179ZM0.32,-0.328C0.32,-0.338 0.319,-0.347 0.316,-0.355C0.314,-0.363 0.311,-0.37 0.307,-0.376C0.303,-0.382 0.298,-0.386 0.292,-0.39C0.287,-0.393 0.281,-0.395 0.274,-0.395C0.261,-0.395 0.25,-0.389 0.241,-0.376C0.233,-0.364 0.229,-0.348 0.229,-0.328L0.32,-0.328Z" style="fill-rule:nonzero;"/>
                    </g>
                    <g transform="matrix(159.883,0,0,159.883,1770.07,3127)">
                        <path d="M0.51,-0L0.314,-0L0.314,-0.279C0.314,-0.303 0.312,-0.32 0.307,-0.33C0.302,-0.339 0.294,-0.344 0.282,-0.344C0.255,-0.344 0.241,-0.318 0.241,-0.266L0.241,-0L0.045,-0L0.045,-0.528L0.241,-0.528C0.241,-0.515 0.241,-0.503 0.24,-0.492C0.24,-0.481 0.239,-0.47 0.239,-0.461L0.237,-0.427C0.268,-0.502 0.315,-0.539 0.375,-0.539C0.418,-0.539 0.451,-0.523 0.474,-0.492C0.498,-0.46 0.51,-0.416 0.51,-0.36L0.51,-0Z" style="fill-rule:nonzero;"/>
                    </g>
                    <g transform="matrix(159.883,0,0,159.883,1858.76,3127)">
                        <path d="M0.246,-0L0.045,-0L0.045,-0.825L0.241,-0.825L0.241,-0.536C0.241,-0.511 0.24,-0.483 0.238,-0.452C0.256,-0.484 0.274,-0.506 0.292,-0.52C0.311,-0.533 0.335,-0.539 0.364,-0.539C0.417,-0.539 0.458,-0.514 0.488,-0.465C0.517,-0.417 0.532,-0.348 0.532,-0.259C0.532,-0.174 0.517,-0.108 0.486,-0.061C0.456,-0.013 0.415,0.011 0.362,0.011C0.336,0.011 0.314,0.005 0.296,-0.007C0.288,-0.013 0.279,-0.021 0.269,-0.032C0.26,-0.042 0.251,-0.055 0.241,-0.071C0.242,-0.065 0.242,-0.059 0.242,-0.055C0.243,-0.051 0.243,-0.047 0.243,-0.044L0.246,-0ZM0.329,-0.263C0.329,-0.339 0.313,-0.376 0.279,-0.376C0.25,-0.376 0.235,-0.341 0.235,-0.27C0.235,-0.195 0.25,-0.158 0.281,-0.158C0.313,-0.158 0.329,-0.193 0.329,-0.263Z" style="fill-rule:nonzero;"/>
                    </g>
                    <g transform="matrix(159.883,0,0,159.883,1948.54,3127)">
                        <path d="M0.315,-0.179L0.507,-0.175C0.493,-0.113 0.467,-0.067 0.427,-0.036C0.387,-0.005 0.336,0.011 0.272,0.011C0.196,0.011 0.137,-0.013 0.094,-0.06C0.052,-0.107 0.03,-0.172 0.03,-0.254C0.03,-0.338 0.053,-0.406 0.099,-0.459C0.145,-0.512 0.204,-0.539 0.277,-0.539C0.349,-0.539 0.407,-0.513 0.45,-0.462C0.493,-0.41 0.514,-0.342 0.514,-0.257L0.513,-0.223L0.226,-0.223C0.228,-0.169 0.244,-0.142 0.272,-0.142C0.294,-0.142 0.309,-0.154 0.315,-0.179ZM0.32,-0.328C0.32,-0.338 0.319,-0.347 0.316,-0.355C0.314,-0.363 0.311,-0.37 0.307,-0.376C0.303,-0.382 0.298,-0.386 0.292,-0.39C0.287,-0.393 0.281,-0.395 0.274,-0.395C0.261,-0.395 0.25,-0.389 0.241,-0.376C0.233,-0.364 0.229,-0.348 0.229,-0.328L0.32,-0.328Z" style="fill-rule:nonzero;"/>
                    </g>
                    <g transform="matrix(159.883,0,0,159.883,2035.58,3127)">
                        <path d="M0.241,-0L0.045,-0L0.045,-0.528L0.241,-0.528L0.231,-0.425C0.261,-0.502 0.31,-0.541 0.378,-0.541L0.378,-0.321C0.356,-0.333 0.338,-0.338 0.323,-0.338C0.297,-0.338 0.277,-0.329 0.262,-0.31C0.248,-0.291 0.241,-0.263 0.241,-0.227L0.241,-0Z" style="fill-rule:nonzero;"/>
                    </g>
                    <g transform="matrix(159.883,0,0,159.883,2099.21,3127)">
                        <path d="M0.512,-0.528L0.512,0.015C0.512,0.056 0.507,0.092 0.495,0.123C0.484,0.151 0.465,0.174 0.439,0.194C0.396,0.228 0.341,0.245 0.274,0.245C0.202,0.245 0.147,0.229 0.109,0.198C0.07,0.167 0.047,0.119 0.038,0.054L0.238,0.054C0.239,0.082 0.253,0.097 0.279,0.097C0.295,0.097 0.307,0.091 0.314,0.079C0.321,0.068 0.324,0.049 0.324,0.022L0.324,-0.062C0.289,-0.016 0.248,0.007 0.201,0.007C0.15,0.007 0.109,-0.018 0.077,-0.068C0.046,-0.118 0.03,-0.183 0.03,-0.264C0.03,-0.345 0.046,-0.411 0.077,-0.462C0.109,-0.514 0.15,-0.539 0.2,-0.539C0.223,-0.539 0.243,-0.533 0.26,-0.521C0.278,-0.509 0.298,-0.488 0.318,-0.458L0.314,-0.528L0.512,-0.528ZM0.322,-0.266C0.322,-0.342 0.308,-0.38 0.28,-0.38C0.249,-0.38 0.233,-0.343 0.233,-0.269C0.233,-0.192 0.248,-0.154 0.279,-0.154C0.308,-0.154 0.322,-0.191 0.322,-0.266Z" style="fill-rule:nonzero;"/>
                    </g>
                    <g transform="matrix(159.883,0,0,159.883,2236.37,3127)">
                        <path d="M0.315,-0.179L0.507,-0.175C0.493,-0.113 0.467,-0.067 0.427,-0.036C0.387,-0.005 0.336,0.011 0.272,0.011C0.196,0.011 0.137,-0.013 0.094,-0.06C0.052,-0.107 0.03,-0.172 0.03,-0.254C0.03,-0.338 0.053,-0.406 0.099,-0.459C0.145,-0.512 0.204,-0.539 0.277,-0.539C0.349,-0.539 0.407,-0.513 0.45,-0.462C0.493,-0.41 0.514,-0.342 0.514,-0.257L0.513,-0.223L0.226,-0.223C0.228,-0.169 0.244,-0.142 0.272,-0.142C0.294,-0.142 0.309,-0.154 0.315,-0.179ZM0.32,-0.328C0.32,-0.338 0.319,-0.347 0.316,-0.355C0.314,-0.363 0.311,-0.37 0.307,-0.376C0.303,-0.382 0.298,-0.386 0.292,-0.39C0.287,-0.393 0.281,-0.395 0.274,-0.395C0.261,-0.395 0.25,-0.389 0.241,-0.376C0.233,-0.364 0.229,-0.348 0.229,-0.328L0.32,-0.328Z" style="fill-rule:nonzero;"/>
                    </g>
                    <g transform="matrix(159.883,0,0,159.883,2323.42,3127)">
                        <path d="M0.265,-0.101C0.265,-0.07 0.253,-0.044 0.231,-0.022C0.209,-0 0.182,0.011 0.151,0.011C0.12,0.011 0.092,-0 0.069,-0.022C0.047,-0.045 0.036,-0.072 0.036,-0.104C0.036,-0.135 0.047,-0.162 0.069,-0.184C0.091,-0.206 0.118,-0.217 0.149,-0.217C0.181,-0.217 0.208,-0.206 0.231,-0.183C0.253,-0.161 0.265,-0.133 0.265,-0.101Z" style="fill-rule:nonzero;"/>
                    </g>
                    <g transform="matrix(159.883,0,0,159.883,2371.51,3127)">
                        <path d="M0.38,-0L0.173,-0L0,-0.754L0.214,-0.754L0.251,-0.539C0.265,-0.456 0.276,-0.364 0.285,-0.262C0.288,-0.307 0.293,-0.35 0.298,-0.389C0.303,-0.429 0.309,-0.467 0.316,-0.504L0.365,-0.754L0.586,-0.754L0.38,-0Z" style="fill-rule:nonzero;"/>
                    </g>
                    <g transform="matrix(159.883,0,0,159.883,2457.38,3127)">
                        <path d="M0.265,-0.101C0.265,-0.07 0.253,-0.044 0.231,-0.022C0.209,-0 0.182,0.011 0.151,0.011C0.12,0.011 0.092,-0 0.069,-0.022C0.047,-0.045 0.036,-0.072 0.036,-0.104C0.036,-0.135 0.047,-0.162 0.069,-0.184C0.091,-0.206 0.118,-0.217 0.149,-0.217C0.181,-0.217 0.208,-0.206 0.231,-0.183C0.253,-0.161 0.265,-0.133 0.265,-0.101Z" style="fill-rule:nonzero;"/>
                    </g>
                </g>
            </g>
        </g>
    </g>
</svg>
